<mxfile host="app.diagrams.net" modified="2023-05-18T07:47:31.628Z" agent="Mozilla/5.0 (Macintosh; Intel Mac OS X 10_15_7) AppleWebKit/537.36 (KHTML, like Gecko) Chrome/113.0.0.0 Safari/537.36" etag="Dh-Tm6JsFY8Lc5YjsDmX" version="21.2.2" type="github">
  <diagram id="C5RBs43oDa-KdzZeNtuy" name="SytemAdmin-First Time user">
    <mxGraphModel dx="954" dy="5297" grid="1" gridSize="10" guides="1" tooltips="1" connect="1" arrows="1" fold="1" page="1" pageScale="1" pageWidth="3300" pageHeight="4681" math="0" shadow="0">
      <root>
        <mxCell id="WIyWlLk6GJQsqaUBKTNV-0" />
        <mxCell id="WIyWlLk6GJQsqaUBKTNV-1" parent="WIyWlLk6GJQsqaUBKTNV-0" />
        <mxCell id="9cJu-RQ06pm0dumcZt0R-6" value="" style="edgeStyle=orthogonalEdgeStyle;rounded=0;orthogonalLoop=1;jettySize=auto;html=1;" edge="1" parent="WIyWlLk6GJQsqaUBKTNV-1" source="9cJu-RQ06pm0dumcZt0R-0" target="9cJu-RQ06pm0dumcZt0R-5">
          <mxGeometry relative="1" as="geometry" />
        </mxCell>
        <mxCell id="9cJu-RQ06pm0dumcZt0R-0" value="Super Admin" style="shape=umlActor;verticalLabelPosition=bottom;verticalAlign=top;html=1;outlineConnect=0;" vertex="1" parent="WIyWlLk6GJQsqaUBKTNV-1">
          <mxGeometry x="200" y="290" width="30" height="60" as="geometry" />
        </mxCell>
        <mxCell id="9cJu-RQ06pm0dumcZt0R-4" value="" style="edgeStyle=orthogonalEdgeStyle;rounded=0;orthogonalLoop=1;jettySize=auto;html=1;" edge="1" parent="WIyWlLk6GJQsqaUBKTNV-1" source="9cJu-RQ06pm0dumcZt0R-3" target="9cJu-RQ06pm0dumcZt0R-0">
          <mxGeometry relative="1" as="geometry" />
        </mxCell>
        <mxCell id="9cJu-RQ06pm0dumcZt0R-3" value="" style="strokeWidth=2;html=1;shape=mxgraph.flowchart.start_1;whiteSpace=wrap;" vertex="1" parent="WIyWlLk6GJQsqaUBKTNV-1">
          <mxGeometry x="20" y="290" width="100" height="60" as="geometry" />
        </mxCell>
        <mxCell id="9cJu-RQ06pm0dumcZt0R-9" value="" style="edgeStyle=orthogonalEdgeStyle;rounded=0;orthogonalLoop=1;jettySize=auto;html=1;" edge="1" parent="WIyWlLk6GJQsqaUBKTNV-1" source="9cJu-RQ06pm0dumcZt0R-5">
          <mxGeometry relative="1" as="geometry">
            <mxPoint x="510" y="320" as="targetPoint" />
          </mxGeometry>
        </mxCell>
        <mxCell id="9cJu-RQ06pm0dumcZt0R-5" value="User lands on landing page of company" style="rounded=1;whiteSpace=wrap;html=1;absoluteArcSize=1;arcSize=14;strokeWidth=2;" vertex="1" parent="WIyWlLk6GJQsqaUBKTNV-1">
          <mxGeometry x="330" y="270" width="100" height="100" as="geometry" />
        </mxCell>
        <mxCell id="9cJu-RQ06pm0dumcZt0R-11" value="" style="edgeStyle=orthogonalEdgeStyle;rounded=0;orthogonalLoop=1;jettySize=auto;html=1;" edge="1" parent="WIyWlLk6GJQsqaUBKTNV-1" source="9cJu-RQ06pm0dumcZt0R-7" target="9cJu-RQ06pm0dumcZt0R-10">
          <mxGeometry relative="1" as="geometry" />
        </mxCell>
        <mxCell id="9cJu-RQ06pm0dumcZt0R-12" value="Wants Demo" style="edgeLabel;html=1;align=center;verticalAlign=middle;resizable=0;points=[];" vertex="1" connectable="0" parent="9cJu-RQ06pm0dumcZt0R-11">
          <mxGeometry x="0.0286" y="1" relative="1" as="geometry">
            <mxPoint as="offset" />
          </mxGeometry>
        </mxCell>
        <mxCell id="9cJu-RQ06pm0dumcZt0R-14" value="" style="edgeStyle=orthogonalEdgeStyle;rounded=0;orthogonalLoop=1;jettySize=auto;html=1;" edge="1" parent="WIyWlLk6GJQsqaUBKTNV-1" source="9cJu-RQ06pm0dumcZt0R-7" target="9cJu-RQ06pm0dumcZt0R-13">
          <mxGeometry relative="1" as="geometry" />
        </mxCell>
        <mxCell id="9cJu-RQ06pm0dumcZt0R-15" value="Logs In" style="edgeLabel;html=1;align=center;verticalAlign=middle;resizable=0;points=[];" vertex="1" connectable="0" parent="9cJu-RQ06pm0dumcZt0R-14">
          <mxGeometry x="-0.1" relative="1" as="geometry">
            <mxPoint as="offset" />
          </mxGeometry>
        </mxCell>
        <mxCell id="9cJu-RQ06pm0dumcZt0R-17" value="" style="edgeStyle=orthogonalEdgeStyle;rounded=0;orthogonalLoop=1;jettySize=auto;html=1;" edge="1" parent="WIyWlLk6GJQsqaUBKTNV-1" source="9cJu-RQ06pm0dumcZt0R-7" target="9cJu-RQ06pm0dumcZt0R-16">
          <mxGeometry relative="1" as="geometry" />
        </mxCell>
        <mxCell id="9cJu-RQ06pm0dumcZt0R-7" value="User Selection?" style="rhombus;whiteSpace=wrap;html=1;" vertex="1" parent="WIyWlLk6GJQsqaUBKTNV-1">
          <mxGeometry x="510" y="280" width="80" height="80" as="geometry" />
        </mxCell>
        <mxCell id="9cJu-RQ06pm0dumcZt0R-20" value="" style="edgeStyle=orthogonalEdgeStyle;rounded=0;orthogonalLoop=1;jettySize=auto;html=1;" edge="1" parent="WIyWlLk6GJQsqaUBKTNV-1" source="9cJu-RQ06pm0dumcZt0R-10" target="9cJu-RQ06pm0dumcZt0R-19">
          <mxGeometry relative="1" as="geometry" />
        </mxCell>
        <mxCell id="9cJu-RQ06pm0dumcZt0R-10" value="User wants demo" style="rounded=1;whiteSpace=wrap;html=1;absoluteArcSize=1;arcSize=14;strokeWidth=2;" vertex="1" parent="WIyWlLk6GJQsqaUBKTNV-1">
          <mxGeometry x="500" y="110" width="100" height="100" as="geometry" />
        </mxCell>
        <mxCell id="9cJu-RQ06pm0dumcZt0R-13" value="User Logs In" style="rounded=1;whiteSpace=wrap;html=1;absoluteArcSize=1;arcSize=14;strokeWidth=2;" vertex="1" parent="WIyWlLk6GJQsqaUBKTNV-1">
          <mxGeometry x="690" y="270" width="100" height="100" as="geometry" />
        </mxCell>
        <mxCell id="9cJu-RQ06pm0dumcZt0R-16" value="User selects Try For Free" style="rounded=1;whiteSpace=wrap;html=1;absoluteArcSize=1;arcSize=14;strokeWidth=2;" vertex="1" parent="WIyWlLk6GJQsqaUBKTNV-1">
          <mxGeometry x="500" y="420" width="100" height="100" as="geometry" />
        </mxCell>
        <mxCell id="9cJu-RQ06pm0dumcZt0R-18" value="Try For Free" style="edgeLabel;html=1;align=center;verticalAlign=middle;resizable=0;points=[];" vertex="1" connectable="0" parent="WIyWlLk6GJQsqaUBKTNV-1">
          <mxGeometry x="550" y="380" as="geometry" />
        </mxCell>
        <mxCell id="9cJu-RQ06pm0dumcZt0R-27" value="" style="edgeStyle=orthogonalEdgeStyle;rounded=0;orthogonalLoop=1;jettySize=auto;html=1;" edge="1" parent="WIyWlLk6GJQsqaUBKTNV-1" source="9cJu-RQ06pm0dumcZt0R-19" target="9cJu-RQ06pm0dumcZt0R-26">
          <mxGeometry relative="1" as="geometry" />
        </mxCell>
        <mxCell id="9cJu-RQ06pm0dumcZt0R-31" value="" style="edgeStyle=orthogonalEdgeStyle;rounded=0;orthogonalLoop=1;jettySize=auto;html=1;" edge="1" parent="WIyWlLk6GJQsqaUBKTNV-1" source="9cJu-RQ06pm0dumcZt0R-19">
          <mxGeometry relative="1" as="geometry">
            <mxPoint x="730" y="30" as="targetPoint" />
          </mxGeometry>
        </mxCell>
        <mxCell id="9cJu-RQ06pm0dumcZt0R-19" value="User enters relevant form details and clicks Submit" style="rounded=1;whiteSpace=wrap;html=1;absoluteArcSize=1;arcSize=14;strokeWidth=2;" vertex="1" parent="WIyWlLk6GJQsqaUBKTNV-1">
          <mxGeometry x="680" y="110" width="100" height="100" as="geometry" />
        </mxCell>
        <mxCell id="9cJu-RQ06pm0dumcZt0R-21" value="" style="strokeWidth=2;html=1;shape=mxgraph.flowchart.database;whiteSpace=wrap;" vertex="1" parent="WIyWlLk6GJQsqaUBKTNV-1">
          <mxGeometry x="700" y="-30" width="60" height="60" as="geometry" />
        </mxCell>
        <mxCell id="9cJu-RQ06pm0dumcZt0R-24" value="Store details in DB" style="edgeLabel;html=1;align=center;verticalAlign=middle;resizable=0;points=[];" vertex="1" connectable="0" parent="WIyWlLk6GJQsqaUBKTNV-1">
          <mxGeometry x="730" y="70" as="geometry" />
        </mxCell>
        <mxCell id="9cJu-RQ06pm0dumcZt0R-25" value="&lt;ul&gt;&lt;li&gt;First Name&lt;/li&gt;&lt;li&gt;Second Name&lt;/li&gt;&lt;li&gt;Job Title&lt;/li&gt;&lt;li&gt;Company Name&lt;/li&gt;&lt;li&gt;Phone Number&lt;/li&gt;&lt;li&gt;Email&lt;/li&gt;&lt;li&gt;Country&lt;/li&gt;&lt;li&gt;Employee Count&lt;/li&gt;&lt;/ul&gt;" style="shape=parallelogram;html=1;strokeWidth=2;perimeter=parallelogramPerimeter;whiteSpace=wrap;rounded=1;arcSize=12;size=0.23;" vertex="1" parent="WIyWlLk6GJQsqaUBKTNV-1">
          <mxGeometry x="770" y="-90" width="260" height="130" as="geometry" />
        </mxCell>
        <mxCell id="9cJu-RQ06pm0dumcZt0R-29" value="" style="edgeStyle=orthogonalEdgeStyle;rounded=0;orthogonalLoop=1;jettySize=auto;html=1;" edge="1" parent="WIyWlLk6GJQsqaUBKTNV-1" source="9cJu-RQ06pm0dumcZt0R-26" target="9cJu-RQ06pm0dumcZt0R-28">
          <mxGeometry relative="1" as="geometry" />
        </mxCell>
        <mxCell id="9cJu-RQ06pm0dumcZt0R-26" value="Automated email to sales expert with details to schedule demo" style="rounded=1;whiteSpace=wrap;html=1;absoluteArcSize=1;arcSize=14;strokeWidth=2;" vertex="1" parent="WIyWlLk6GJQsqaUBKTNV-1">
          <mxGeometry x="850" y="110" width="100" height="100" as="geometry" />
        </mxCell>
        <mxCell id="9cJu-RQ06pm0dumcZt0R-28" value="Sales expert to call user and discuss" style="rounded=1;whiteSpace=wrap;html=1;absoluteArcSize=1;arcSize=14;strokeWidth=2;" vertex="1" parent="WIyWlLk6GJQsqaUBKTNV-1">
          <mxGeometry x="1020" y="110" width="100" height="100" as="geometry" />
        </mxCell>
      </root>
    </mxGraphModel>
  </diagram>
</mxfile>
